<svg width="145" height="92" fill="none" xmlns="http://www.w3.org/2000/svg"><path d="M47.872 18.323h58.88c3.669 0 7.339.49 11.008 1.472a27.27 27.27 0 019.92 4.864c2.944 2.261 5.312 5.333 7.104 9.216 1.792 3.883 2.688 8.725 2.688 14.528 0 4.31-.683 8.555-2.048 12.736a40.125 40.125 0 01-5.952 11.456l-7.36-4.928c2.389-3.84 4.011-7.339 4.864-10.496.811-3.157 1.216-6.037 1.216-8.64 0-6.144-1.963-10.859-5.888-14.144-3.925-3.328-9.323-4.992-16.192-4.992H56.96v26.112h-9.088V18.323z" fill="#fff"/><path d="M97.128 73.677h-58.88c-3.67 0-7.339-.49-11.008-1.472a27.27 27.27 0 01-9.92-4.864c-2.944-2.261-5.312-5.333-7.104-9.216-1.792-3.883-2.688-8.725-2.688-14.528 0-4.31.683-8.555 2.048-12.736a40.14 40.14 0 015.952-11.456l7.36 4.928c-2.39 3.84-4.01 7.339-4.864 10.496-.81 3.157-1.216 6.037-1.216 8.64 0 6.144 1.963 10.859 5.888 14.144 3.925 3.328 9.323 4.992 16.192 4.992H88.04V36.493h9.088v37.184z" fill="#fff"/></svg>